<?xml version="1.0" standalone="no"?>
<!DOCTYPE svg PUBLIC "-//W3C//DTD SVG 20010904//EN"
 "http://www.w3.org/TR/2001/REC-SVG-20010904/DTD/svg10.dtd">
<svg version="1.0" xmlns="http://www.w3.org/2000/svg"
 width="411.000000pt" height="411.000000pt" viewBox="0 0 411.000000 411.000000"
 preserveAspectRatio="xMidYMid meet">
<metadata>
Created by potrace 1.14, written by Peter Selinger 2001-2017
</metadata>
<g transform="translate(0.000000,411.000000) scale(0.100000,-0.100000)"
fill="#000000" stroke="none">
<path d="M1977 4104 c-1 -1 -42 -4 -92 -7 -257 -16 -507 -126 -669 -295 -105
-110 -138 -183 -142 -317 -3 -94 -5 -102 -38 -150 -73 -107 -134 -253 -161
-381 -24 -117 -21 -310 6 -382 6 -15 9 -27 8 -27 -14 0 82 -209 123 -267 36
-52 121 -148 177 -203 74 -70 111 -149 126 -264 21 -163 -12 -321 -111 -526
l-43 -91 -113 -64 c-360 -205 -785 -400 -946 -435 -35 -7 -36 -17 -2 -22 17
-2 120 -25 265 -59 67 -16 65 -15 155 -39 36 -9 74 -19 86 -21 35 -6 413 -113
569 -160 192 -58 609 -198 700 -235 38 -16 73 -29 77 -29 4 0 40 -15 80 -34
84 -39 97 -43 158 -51 25 -4 63 -10 85 -15 119 -26 650 -29 901 -6 50 5 53 10
49 99 -8 175 -67 332 -184 488 l-59 77 10 50 10 50 60 -34 c33 -19 65 -34 72
-34 7 0 16 -4 22 -9 16 -16 176 -62 239 -69 121 -14 279 -5 343 19 59 23 123
93 138 154 20 78 25 225 10 313 -3 17 -8 47 -12 65 -12 72 -56 233 -93 336
l-38 109 78 78 c43 42 80 87 83 99 3 13 2 43 -3 68 l-8 45 73 76 c71 74 73 76
59 103 -7 15 -31 71 -53 123 -22 52 -72 171 -111 263 -39 93 -71 173 -71 177
0 5 10 10 22 12 12 2 32 18 45 37 19 28 22 43 18 105 -6 110 -78 301 -194 511
-38 70 -42 83 -33 108 22 58 -39 175 -150 286 -34 34 -65 51 -148 83 -192 72
-598 190 -770 223 -63 12 -259 45 -295 50 -68 8 -303 23 -308 19z"/>
</g>
</svg>
